<?xml version="1.0" standalone="no"?>
<!DOCTYPE svg PUBLIC "-//W3C//DTD SVG 20010904//EN"
 "http://www.w3.org/TR/2001/REC-SVG-20010904/DTD/svg10.dtd">
<svg version="1.0" xmlns="http://www.w3.org/2000/svg"
 width="299.000000pt" height="301.000000pt" viewBox="0 0 299.000000 301.000000"
 preserveAspectRatio="xMidYMid meet">
<metadata>
Created by potrace 1.16, written by Peter Selinger 2001-2019
</metadata>
<g transform="translate(0.000000,301.000000) scale(0.100000,-0.100000)"
fill="#000000" stroke="none">
<path d="M1410 2971 c0 -5 7 -14 15 -21 29 -24 17 -46 -22 -41 -8 1 -10 -5 -7
-14 8 -19 -57 -85 -82 -85 -10 0 -28 -10 -40 -21 -21 -20 -26 -20 -55 -9 -27
12 -30 17 -25 43 9 43 31 64 75 71 45 7 70 31 53 48 -9 9 -15 9 -24 0 -17 -17
-38 -15 -38 3 0 9 -9 15 -25 15 -28 0 -50 -39 -41 -72 4 -19 -27 -43 -43 -33
-5 3 -23 -6 -39 -20 -16 -14 -35 -25 -41 -25 -13 0 -13 0 -2 36 5 16 12 41 15
55 6 26 5 26 -38 18 -24 -4 -70 -19 -102 -32 -54 -21 -59 -26 -64 -58 -4 -28
-10 -35 -32 -37 -16 -2 -28 -8 -28 -13 0 -18 -28 -9 -33 12 -5 18 -8 19 -29 8
-107 -56 -324 -235 -400 -331 l-29 -38 45 -95 c25 -53 46 -99 46 -103 0 -15
-44 -45 -48 -33 -2 7 -15 9 -37 5 -22 -4 -35 -1 -41 7 -4 7 -3 14 4 17 21 7
14 42 -9 42 -11 0 -17 -4 -14 -10 3 -5 0 -10 -8 -10 -12 0 -27 19 -27 35 0 19
80 -2 100 -26 3 -3 16 -8 28 -12 21 -5 23 -3 18 17 -10 42 -46 113 -63 127
-14 12 -16 12 -9 0 6 -9 5 -12 -5 -9 -9 3 -32 -23 -62 -71 -46 -73 -97 -164
-97 -176 0 -14 32 -2 54 20 31 31 56 32 84 2 18 -19 27 -66 12 -65 -28 2 -8
-19 50 -51 24 -14 25 -13 7 6 -22 26 -22 30 8 37 16 4 22 11 19 21 -9 21 10
18 31 -5 10 -11 13 -20 7 -20 -17 0 -15 -20 4 -42 14 -14 14 -20 4 -33 -10
-12 -10 -18 0 -30 10 -12 9 -16 -4 -21 -23 -9 -21 -37 2 -30 20 7 49 -34 38
-53 -4 -5 -3 -18 3 -28 17 -33 32 -120 25 -147 -5 -21 -12 -26 -36 -26 -23 0
-29 -4 -24 -15 4 -11 -2 -15 -23 -15 -21 0 -28 -5 -27 -16 3 -36 -24 -23 -43
21 -11 26 -32 60 -46 77 -14 16 -25 38 -25 48 0 10 -4 21 -9 25 -5 3 -17 30
-25 60 -9 29 -22 60 -29 67 -6 7 -13 24 -14 38 -1 14 -4 48 -6 76 -2 28 -7 56
-11 63 -13 20 -35 12 -51 -19 -9 -16 -11 -30 -6 -30 5 0 17 -22 26 -50 9 -27
21 -50 25 -50 5 0 7 -6 4 -14 -3 -8 -1 -23 5 -33 10 -17 10 -17 11 2 1 11 7
-2 14 -29 8 -26 11 -58 9 -70 -3 -14 -2 -17 4 -8 7 9 12 6 21 -13 7 -14 12
-31 11 -38 0 -7 -5 -1 -11 13 -18 42 -21 0 -4 -66 18 -72 30 -161 17 -124 -5
14 -17 59 -26 100 -10 41 -26 93 -36 114 -11 22 -19 46 -19 54 0 8 -6 26 -14
40 -8 15 -22 49 -31 75 -18 52 -31 52 -41 -1 -4 -21 -3 -32 5 -32 17 0 44 -68
45 -117 2 -48 1 -49 -20 -28 -8 8 -21 12 -29 9 -17 -7 -20 -24 -5 -24 6 0 10
-5 10 -11 0 -23 -25 -1 -36 31 -10 31 -12 27 -24 -61 -15 -112 -16 -347 -1
-444 17 -110 61 -284 89 -354 14 -36 47 -101 72 -145 74 -129 72 -126 88 -114
10 9 16 8 22 -2 6 -10 14 -9 36 6 36 25 86 32 79 11 -4 -9 1 -13 14 -12 25 2
41 15 18 15 -29 0 -18 17 16 25 31 8 78 8 86 0 2 -3 -3 -15 -12 -28 -14 -21
-14 -24 3 -35 13 -8 17 -20 14 -44 -3 -18 -8 -75 -10 -125 -5 -75 -9 -93 -21
-93 -41 0 180 -157 317 -224 47 -23 99 -47 115 -53 58 -21 195 -57 199 -52 6
6 -24 197 -70 449 -22 115 -53 244 -76 314 -47 140 -46 171 9 284 33 67 34 77
28 134 l-7 61 114 -115 c139 -140 172 -163 263 -181 68 -14 76 -13 125 15 8 4
26 13 40 19 82 36 120 60 169 107 l56 53 3 -43 c2 -47 26 -195 43 -268 l10
-45 152 -87 c213 -121 216 -122 492 -225 22 -8 50 -24 63 -36 l22 -21 30 35
c58 66 172 245 220 344 50 105 87 221 117 370 25 127 25 434 0 559 -25 124
-65 259 -98 334 -99 219 -292 457 -484 594 -82 58 -205 131 -261 154 -31 13
-32 13 -29 -11 1 -14 -2 -28 -6 -31 -5 -3 -9 2 -9 10 0 12 -11 16 -45 16 -32
0 -45 4 -45 14 0 8 5 16 10 18 28 9 -22 40 -95 59 -160 40 -485 67 -485 40z
m-307 -246 l-6 -35 43 0 c25 0 56 -8 75 -20 30 -19 35 -19 76 -5 24 9 46 21
50 27 4 7 11 3 18 -10 10 -19 7 -23 -35 -41 -26 -12 -51 -21 -56 -21 -17 0
-128 -60 -128 -70 0 -5 -25 -34 -55 -65 -57 -59 -81 -64 -71 -14 3 16 -1 50
-10 76 -9 25 -14 59 -12 75 3 15 1 28 -3 28 -14 0 -68 -51 -74 -69 -7 -24 -59
-49 -116 -56 -32 -4 -54 -14 -70 -31 -13 -14 -32 -30 -42 -36 -16 -8 -15 -4 5
32 24 43 118 126 225 198 72 48 93 53 93 18 0 -22 2 -23 28 -14 17 7 33 23 40
40 15 40 32 36 25 -7z m502 -342 c76 -5 114 -18 190 -64 61 -37 88 -84 104
-179 5 -36 13 -75 17 -88 6 -21 4 -22 -22 -16 -16 4 -54 16 -84 27 -71 26
-136 26 -192 -1 -66 -32 -134 -29 -214 9 -58 28 -72 31 -127 26 -94 -9 -115
-13 -129 -24 -19 -15 -85 -25 -92 -14 -4 5 -2 12 4 16 11 7 36 61 65 138 10
26 24 47 31 47 15 0 54 35 54 48 0 15 76 70 111 81 31 10 93 9 284 -6z m-303
-363 l22 -20 -56 0 c-53 0 -57 -2 -96 -46 -23 -25 -42 -47 -42 -50 0 -2 15 -4
34 -4 19 0 38 -5 41 -10 3 -6 17 -7 31 -4 18 5 24 2 24 -11 0 -14 -7 -16 -40
-13 -48 4 -53 -8 -7 -21 l32 -9 -42 -1 c-23 -1 -48 2 -57 5 -18 7 -33 58 -38
122 -2 39 0 44 32 62 49 26 134 27 162 0z m565 -7 c3 -7 11 -9 20 -6 29 11 41
-21 31 -89 -12 -89 -27 -108 -86 -107 -35 1 -41 3 -23 8 14 4 26 12 29 19 2 8
-13 12 -54 12 -98 0 -51 16 58 19 36 1 37 2 36 40 0 37 -3 40 -35 46 -18 3
-43 3 -54 0 -26 -9 -72 3 -64 15 3 6 1 10 -4 10 -9 0 -9 11 -2 49 2 9 145 -6
148 -16z m-793 -39 c3 -9 6 -29 6 -45 0 -36 21 -89 43 -107 10 -9 60 -17 129
-22 151 -10 164 -4 215 92 21 40 44 73 52 73 7 0 32 -38 55 -85 l41 -85 125
-3 c154 -3 175 4 194 67 l15 46 1 -40 c1 -22 5 -51 9 -64 6 -21 8 -22 20 -7 7
9 22 16 32 16 20 0 49 -36 49 -60 -1 -12 -3 -12 -11 3 -11 18 -49 24 -49 7 0
-18 22 -104 33 -127 17 -38 -55 -194 -79 -170 -11 11 -16 87 -7 99 14 18 25
96 14 102 -11 7 -18 -10 -26 -70 -15 -104 -43 -178 -120 -309 -35 -59 -53 -75
-122 -111 -48 -25 -62 -27 -183 -28 -105 -1 -137 2 -163 16 -18 9 -47 23 -64
32 -78 36 -120 74 -132 119 -11 39 -15 43 -38 39 -18 -3 -24 -1 -21 10 2 7 -7
34 -19 58 -20 43 -36 105 -64 248 -7 39 -9 85 -4 125 4 34 8 83 9 109 2 62 44
113 60 72z m-130 -156 c22 -36 27 -84 11 -98 -8 -7 -15 -25 -15 -41 0 -32 14
-39 24 -12 12 31 28 -3 33 -71 5 -51 2 -71 -11 -91 -34 -52 -75 -19 -107 87
-22 78 -32 121 -23 101 10 -22 24 -14 24 12 0 15 7 40 16 57 20 38 5 60 -26
40 -22 -14 -25 -9 -10 19 15 27 66 25 84 -3z"/>
<path d="M1398 1676 l-28 -12 23 -23 22 -22 -39 -35 c-31 -27 -48 -34 -81 -34
-30 0 -47 -6 -61 -21 -18 -20 -18 -21 -1 -34 10 -7 42 -19 70 -26 29 -6 54
-15 57 -19 8 -11 86 -19 101 -10 9 6 4 11 -17 15 -16 4 -33 8 -39 11 -5 2 69
2 165 1 96 -1 181 2 188 6 28 19 0 60 -50 72 -23 6 -28 4 -28 -10 0 -14 -5
-16 -32 -10 -18 5 -91 8 -161 8 -88 0 -125 3 -118 10 18 18 126 24 224 11 52
-6 57 1 31 41 -14 21 -14 26 0 48 9 13 13 27 9 30 -15 15 -68 6 -91 -15 l-24
-23 -20 28 c-22 30 -53 34 -100 13z"/>
<path d="M1213 832 c-21 -13 -55 -238 -48 -315 l7 -69 31 6 c16 3 67 22 111
40 135 58 139 57 229 -13 42 -34 79 -61 83 -61 4 0 24 -16 45 -35 22 -19 43
-35 48 -35 11 0 51 85 74 156 9 27 18 87 20 133 4 75 3 84 -14 88 -11 3 -19
12 -19 19 0 18 -22 18 -66 -1 -32 -13 -39 -13 -64 0 -16 8 -36 15 -45 15 -24
0 -76 -30 -70 -40 7 -11 -59 -25 -75 -15 -8 5 -8 11 1 21 7 9 8 14 1 14 -6 0
-12 -4 -14 -9 -1 -5 -15 -12 -29 -16 -22 -5 -37 3 -97 59 -71 65 -86 73 -109
58z"/>
<path d="M1845 659 c-4 -35 -12 -77 -19 -94 -8 -19 -10 -45 -5 -70 13 -69 39
-277 45 -357 3 -43 10 -78 15 -78 5 0 36 7 68 16 l58 16 -7 38 c-5 30 -4 37 7
33 15 -6 18 13 4 21 -10 6 -9 31 1 41 13 13 -8 68 -30 76 -20 8 -22 6 -17 -10
3 -11 1 -22 -5 -26 -10 -6 -15 13 -11 53 2 21 -15 28 -56 23 -7 -1 -14 8 -14
21 -1 13 -3 43 -5 68 -1 25 -5 63 -9 85 -6 37 -8 80 -6 113 1 6 8 12 16 12 12
0 14 7 9 28 -4 15 -12 33 -19 41 -11 11 -14 2 -20 -50z"/>
</g>
</svg>
